<?xml version="1.0" encoding="UTF-8" standalone="no"?>
<svg width="512px" height="512px" viewBox="0 0 512 512" version="1.1" xmlns="http://www.w3.org/2000/svg" xmlns:xlink="http://www.w3.org/1999/xlink">
    <!-- Generator: Sketch 3.6.1 (26313) - http://www.bohemiancoding.com/sketch -->
    <title>aboutme</title>
    <desc>Created with Sketch.</desc>
    <defs></defs>
    <g id="Page-1" stroke="none" stroke-width="1" fill="none" fill-rule="evenodd">
        <g id="aboutme">
            <rect id="bkgnd" fill="#7C7877" x="0" y="0" width="512" height="512"></rect>
            <path d="M130,207 L150,207 L150,219.5 C158.5,208.5 195.5,190 210.5,221.5 C221,200 272,193 272,231 L272,306 L251,306 C251,306 250.5,264 251,240 C251,215 219.5,221 211,236.5 L211,306 L190,306 L190,240 C190,215 160,221 150,236.5 L150,306 L130,306 L130,207 Z" id="m" fill="#FFFFFF"></path>
            <path d="M334.5,204.5 C356.5,204.5 382.999993,216.5 382.499997,263 L306.5,263 C306.5,280.5 332.5,304 366.5,280 L376,293.5 C351.5,319 285.243345,313.494226 284.5,257 C284,219 312.5,204.5 334.5,204.5 Z" id="e" fill="#FFFFFF"></path>
            <path d="M334.5,221.5 C362,221.5 362,247.709473 362,247.709473 L307,247.709473 C307,247.709473 307,221.5 334.5,221.5 Z" id="egap" fill="#7C7877"></path>
        </g>
    </g>
</svg>