<?xml version="1.0" encoding="UTF-8" standalone="no"?>
<svg width="512px" height="512px" viewBox="0 0 512 512" version="1.1" xmlns="http://www.w3.org/2000/svg" xmlns:xlink="http://www.w3.org/1999/xlink">
    <!-- Generator: Sketch 3.6.1 (26313) - http://www.bohemiancoding.com/sketch -->
    <title>twitter</title>
    <desc>Created with Sketch.</desc>
    <defs></defs>
    <g id="Page-1" stroke="none" stroke-width="1" fill="none" fill-rule="evenodd">
        <g id="twitter">
            <rect id="bkgnd" fill="#7C7877" x="0" y="0" width="512" height="512"></rect>
            <path d="M220.5,300.529073 C205,300.529073 190.780461,288.389026 185,272.529073 C190.78046,273.529073 196.5,275.029073 201.5,271.529073 C190.5,270.529073 173.5,257.029073 172,232.529073 C177,234.029073 181,236.529073 189,236.529073 C179,230.529073 165.5,208.529073 177.5,182.529073 C198,212.029073 229,224.529073 255,224.529073 C252,199.529074 264,185.029073 279.5,178.529073 C295,172.029073 309.5,179.029073 319,188.529073 C328,187.029073 336.654841,181.936168 344,177.529073 C340,188.029073 335,195.029073 327,200.529073 C337,199.529073 338.5,198.029073 348.5,194.529073 C342.5,204.529073 335,210.029073 329.5,215.529073 C331,317.529073 236,365.029073 164,317.529073 C184,318.529073 202.5,317.029073 220.5,300.529073 Z" fill="#FFFFFF"></path>
        </g>
    </g>
</svg>