<?xml version="1.0" encoding="UTF-8" standalone="no"?>
<svg width="512px" height="512px" viewBox="0 0 512 512" version="1.1" xmlns="http://www.w3.org/2000/svg" xmlns:xlink="http://www.w3.org/1999/xlink">
    <!-- Generator: Sketch 3.6.1 (26313) - http://www.bohemiancoding.com/sketch -->
    <title>youtube</title>
    <desc>Created with Sketch.</desc>
    <defs></defs>
    <g id="Page-1" stroke="none" stroke-width="1" fill="none" fill-rule="evenodd">
        <g id="youtube">
            <rect id="bkgnd" fill="#7C7877" x="0" y="0" width="512" height="512"></rect>
            <path d="M173.46633,214.213789 C174.865637,207.744442 181.314286,201.778145 187.903256,200.984364 C187.903256,200.984364 212.5,197 257.25,197 C302,197 324.605319,200.920237 324.605319,200.920237 C331.17457,201.792716 337.566493,207.771038 338.624075,214.300909 C338.624075,214.300909 341.5,223 341.5,257 C341.5,291 338.81704,296.733015 338.81704,296.733015 C337.537374,303.231741 331.202615,309.391868 324.65227,310.360463 C324.65227,310.360463 302,315 257.25,315 C212.5,315 187.855295,310.284751 187.855295,310.284751 C181.307796,309.29906 174.589476,303.323864 173.237085,296.829027 C173.237085,296.829027 170,291 170,257 C170,223 173.46633,214.213789 173.46633,214.213789 Z" fill="#FFFFFF"></path>
            <path d="M239.5,231.497143 C239.5,225.975873 243.147199,224.103333 247.642546,227.312064 L279.357454,249.949835 C283.854458,253.159749 283.852801,258.363423 279.357454,261.569926 L247.642546,284.191972 C243.145542,287.399657 239.5,285.531946 239.5,280.002857 L239.5,231.497143 Z" id="play" fill="#7C7877"></path>
        </g>
    </g>
</svg>